<svg width="432" height="420" viewBox="0 0 432 420" fill="none" xmlns="http://www.w3.org/2000/svg">
<path d="M335.94 0.419922H96.06C43.0075 0.419922 0 43.4274 0 96.4799V323.53C0 376.582 43.0075 419.59 96.06 419.59H335.94C388.992 419.59 432 376.582 432 323.53V96.4799C432 43.4274 388.992 0.419922 335.94 0.419922Z" fill="#271302"/>
<path d="M335.94 20.4199H96.06C54.0532 20.4199 20 54.4731 20 96.4799V323.53C20 365.537 54.0532 399.59 96.06 399.59H335.94C377.947 399.59 412 365.537 412 323.53V96.4799C412 54.4731 377.947 20.4199 335.94 20.4199Z" fill="#271302"/>
<path d="M151.35 245.18L139.16 282.78C138.991 283.38 138.623 283.905 138.116 284.269C137.609 284.632 136.993 284.812 136.37 284.78H106.9C105.12 284.78 104.61 283.78 104.9 282.24L155.7 135.66C156.7 132.87 157.7 129.82 158.24 120.17C158.218 119.733 158.364 119.305 158.649 118.973C158.934 118.642 159.336 118.433 159.77 118.39H200.41C201.68 118.39 202.19 118.64 202.41 119.91L260.08 282.49C260.59 283.76 260.33 284.78 258.81 284.78H225.81C225.207 284.866 224.592 284.735 224.077 284.408C223.562 284.082 223.18 283.583 223 283L210 245.15L151.35 245.18ZM200.64 213.43C195.56 196.66 185.39 165.92 180.57 147.89H180.31C176.25 164.89 167.1 192.89 160.5 213.43H200.64Z" fill="#FF7C01"/>
<path d="M275.32 125.28C275.32 113.85 283.7 105.72 295.13 105.72C307.32 105.72 314.69 113.85 314.69 125.28C314.69 137.22 306.82 145.09 294.88 145.09C282.94 145.09 275.32 137.22 275.32 125.28ZM277.09 160.59C277.09 159.32 277.6 158.59 279.09 158.59H310.33C311.86 158.59 312.33 159.09 312.33 160.59V282.52C312.33 284.05 312.08 284.81 310.05 284.81H279.63C277.86 284.81 277.09 284.05 277.09 282.52V160.59Z" fill="#FF7C01"/>
</svg>
