<svg width="432" height="420" viewBox="0 0 432 420" fill="none" xmlns="http://www.w3.org/2000/svg">
<path d="M335.94 0.419922H96.06C43.0075 0.419922 0 43.4274 0 96.4799V323.53C0 376.582 43.0075 419.59 96.06 419.59H335.94C388.992 419.59 432 376.582 432 323.53V96.4799C432 43.4274 388.992 0.419922 335.94 0.419922Z" fill="#001D23"/>
<path d="M335.94 20.4199H96.06C54.0532 20.4199 20 54.4731 20 96.4799V323.53C20 365.537 54.0532 399.59 96.06 399.59H335.94C377.947 399.59 412 365.537 412 323.53V96.4799C412 54.4731 377.947 20.4199 335.94 20.4199Z" fill="#001D23"/>
<path d="M107.92 120.71C107.92 119.18 108.17 118.71 109.44 118.71C119.86 118.46 139.92 117.95 159.23 117.95C210.54 117.95 228.33 146.4 228.33 174.09C228.33 215.25 196.57 232.77 157.45 232.77H143V282.77C143 284.04 142.49 284.77 141 284.77H109.69C108.42 284.77 107.92 284.01 107.92 282.77V120.71ZM143 201.49C147.32 201.74 150.11 201.74 157.23 201.74C177.3 201.74 193.3 195.64 193.3 174.81C193.3 158.81 182.38 148.65 160.3 148.65C152.17 148.65 145.3 148.9 143.02 149.16L143 201.49Z" fill="#01C8FE"/>
<path d="M293.6 184.21C281.66 184.21 277.85 188.53 277.85 192.85C277.85 197.17 281.16 200.47 295.85 206.06C326.59 217.24 336.24 229.18 336.24 247.21C336.24 271.35 317.44 287.35 283.91 287.35C268.42 287.35 254.91 284.55 247.08 280.24C246.541 280 246.084 279.606 245.767 279.108C245.451 278.61 245.288 278.03 245.3 277.44V250C245.3 248.47 246.3 247.71 247.3 248.47C258.99 255.84 273.21 258.63 284.64 258.63C296.58 258.63 301.92 255.33 301.92 250C301.92 245.17 297.6 241.61 282.61 236C253.91 225.33 244.51 213.13 244.51 194.84C244.51 175.03 260.51 155.98 294.04 155.98C309.04 155.98 320.72 157.98 327.04 161.06C327.639 161.36 328.131 161.839 328.448 162.429C328.765 163.02 328.891 163.695 328.81 164.36V189.76C328.81 191.29 327.81 192.3 326.27 191.54C318 187.26 305 184.21 293.6 184.21Z" fill="#01C8FE"/>
</svg>
