<svg width="121" height="121" viewBox="0 0 121 121" fill="none" xmlns="http://www.w3.org/2000/svg">
<path d="M50.2389 15.1849C50.2389 19.3229 46.8805 22.6812 42.7425 22.6812C38.6045 22.6812 35.2461 19.3229 35.2461 15.1849C35.2461 11.0469 38.6045 7.68848 42.7425 7.68848C46.8805 7.68848 50.2389 11.0469 50.2389 15.1849Z" fill="#F9F9F9"/>
<path d="M60.1942 0.271973C55.2566 0.291963 50.5288 0.721756 46.3709 1.44141C34.1318 3.59037 31.9028 8.05821 31.9028 16.3192V27.234H60.8339V30.8672H21.0481C12.6321 30.8672 5.2757 35.8648 2.97181 45.3702C0.318093 56.2649 0.17816 63.0766 2.97181 74.4361C5.02082 82.9071 9.92346 88.9391 18.3344 88.9391H26.8453V74.4561C26.8453 65.0257 35.1213 56.7497 44.9415 56.7497H75.2269C83.268 56.7497 90.8843 50.1879 90.8843 42.2067V16.3792C90.8843 8.62793 83.0931 2.79076 75.2269 1.50138C70.2693 0.681776 65.1168 0.311954 60.1842 0.331944M44.5467 9.03774C47.5353 9.03774 49.9741 11.4966 49.9741 14.5251C49.9741 17.5336 47.5353 19.9525 44.5467 19.9525C41.5382 19.9525 39.0994 17.5336 39.0994 14.5251C39.0994 11.5015 41.5182 9.03774 44.5467 9.03774Z" fill="#4586B9"/>
<path d="M85.2422 105.141C85.2422 109.279 81.8839 112.638 77.7459 112.638C73.5879 112.638 70.2295 109.279 70.2295 105.141C70.2295 101.003 73.5879 97.645 77.7459 97.645C81.8839 97.645 85.2422 101.003 85.2422 105.141Z" fill="#F9F9F9"/>
<path d="M95.0028 30.8574V43.5663C95.0028 53.4065 86.5519 60.5331 76.9265 60.5331H45.1819C37.2757 60.5331 30.7139 68.4193 30.7139 76.2505V103.502C30.7139 111.254 37.5256 115.801 45.1819 118.025C54.3375 120.679 64.3126 121.189 75.2673 118.025C82.5488 115.936 89.7354 111.738 89.7354 103.502V92.5876H60.8443V88.9544H104.223C112.619 88.9544 115.763 83.1372 118.691 74.4514C121.715 65.4907 121.56 56.8599 118.691 45.3854C116.602 37.0894 112.639 30.8824 104.223 30.8824M77.1065 99.8741C80.095 99.8741 82.5338 102.293 82.5338 105.301C82.5338 108.31 80.115 110.789 77.1065 110.789C74.0979 110.789 71.6591 108.31 71.6591 105.301C71.6591 102.293 74.0979 99.8741 77.1065 99.8741Z" fill="#FFE634"/>
</svg>
